<?xml version="1.0" encoding="UTF-8"?>
<svg xmlns="http://www.w3.org/2000/svg" version="1.1" viewBox="0 0 733.6 164.9">
  <defs>
    <style>
      .cls-1 {
        fill: #231f20;
      }
    </style>
  </defs>
  <!-- Generator: Adobe Illustrator 28.6.0, SVG Export Plug-In . SVG Version: 1.2.0 Build 709)  -->
  <g>
    <g id="Layer_1">
      <g>
        <path class="cls-1" d="M182.7,115.9h14.4c2.6,0,4.7,2.2,4.7,4.7v12.8c0,1.9-1,3.4-2.4,3.8,2.1.5,3.3,2.6,3.3,4.6v13.9c0,2.5-2.1,4.6-4.7,4.6h-15.2v-44.4h0ZM189.7,134.1h5.1v-11.2h-5.1v11.2ZM195.6,153.3v-12.1h-5.9v12.1h5.9Z"/>
        <path class="cls-1" d="M217,115.9v37.3h5.9v-37.3h7v39.8c0,2.5-2.1,4.6-4.7,4.6h-10.6c-2.5,0-4.7-2.1-4.7-4.6v-39.8s7,0,7,0Z"/>
        <path class="cls-1" d="M238.1,115.9h7v44.4h-7v-44.4Z"/>
        <path class="cls-1" d="M253.2,115.9h7v37.3h8.2v7h-15.2v-44.4h0Z"/>
        <path class="cls-1" d="M275.1,115.9h15.3c2.6,0,4.7,2.2,4.7,4.7v35.1c0,2.5-2.1,4.6-4.7,4.6h-15.3v-44.4ZM288,122.9h-5.9v30.3h5.9v-30.3Z"/>
        <path class="cls-1" d="M301.6,153.3h7v7h-7v-7Z"/>
        <path class="cls-1" d="M324.8,115.9h15.2c2.6,0,4.7,2.2,4.7,4.7v17.4c0,2.5-2.1,4.6-4.7,4.6h-8.2v17.8h-7s0-44.4,0-44.4ZM337.7,122.9h-5.9v12.6h5.9v-12.6Z"/>
        <path class="cls-1" d="M364.2,142.5h-5.9v17.8h-7v-44.4h14.4c2.6,0,4.7,2.2,4.7,4.7v14.2c0,1.9-1,3.4-2.4,3.8,2.1.5,3.3,2.6,3.3,4.6v17.1h-7v-17.8h0ZM358.3,135.5h5.1v-12.6h-5.1v12.6Z"/>
        <path class="cls-1" d="M379.4,120.6c0-2.5,2.2-4.7,4.7-4.7h10.6c2.6,0,4.7,2.2,4.7,4.7v35.1c0,2.5-2.1,4.6-4.7,4.6h-10.6c-2.5,0-4.7-2.1-4.7-4.6v-35.1ZM392.3,122.9h-5.9v30.3h5.9v-30.3Z"/>
        <path class="cls-1" d="M411.4,122.9h-6.2v-7h19.5v7h-6.2v37.3h-7v-37.3h0Z"/>
        <path class="cls-1" d="M448.5,160.3h-18.1v-44.4h17.5v7h-10.5v11.3h7.4v7h-7.4v12.1h11v7h0Z"/>
        <path class="cls-1" d="M468.8,129.1v-6.2h-5.9v30.4h5.9v-6.3h7v8.7c0,2.5-2.1,4.6-4.7,4.6h-10.6c-2.5,0-4.7-2.1-4.7-4.6v-35.1c0-2.5,2.2-4.7,4.7-4.7h10.6c2.6,0,4.7,2.2,4.7,4.7v8.6h-7Z"/>
        <path class="cls-1" d="M487.9,122.9h-6.2v-7h19.5v7h-6.2v37.3h-7v-37.3h0Z"/>
        <path class="cls-1" d="M505.4,153.3h7v7h-7v-7Z"/>
        <path class="cls-1" d="M541.4,142.5h-5.9v17.8h-7v-44.4h14.4c2.7,0,4.7,2.2,4.7,4.7v14.2c0,1.9-1,3.4-2.4,3.8,2.1.5,3.3,2.6,3.3,4.6v17.1h-7v-17.8h0ZM535.5,135.5h5v-12.6h-5v12.6Z"/>
        <path class="cls-1" d="M574.6,160.3h-18v-44.4h17.5v7h-10.5v11.3h7.4v7h-7.4v12.1h11v7h0Z"/>
        <path class="cls-1" d="M589,148.5v4.8h5.9v-12.1h-8.2c-2.7,0-4.7-2.2-4.7-4.6v-15.9c0-2.7,1.9-4.7,4.7-4.7h10.6c2.7,0,4.7,1.9,4.7,4.6v6.8h-7v-4.3h-5.9v11.2h8.2c2.7,0,4.7,2.2,4.7,4.7v16.9c0,2.5-2.1,4.6-4.7,4.6h-10.6c-2.5,0-4.7-2.1-4.7-4.6v-7.1h7Z"/>
        <path class="cls-1" d="M614,122.9h-6.2v-7h19.5v7h-6.2v37.3h-7v-37.3h0Z"/>
        <path class="cls-1" d="M633.1,120.6c0-2.5,2.2-4.7,4.7-4.7h10.6c2.6,0,4.7,2.2,4.7,4.7v35.1c0,2.5-2.1,4.6-4.7,4.6h-10.6c-2.5,0-4.7-2.1-4.7-4.6v-35.1ZM646,122.9h-5.9v30.3h5.9v-30.3Z"/>
        <path class="cls-1" d="M674.1,142.5h-5.9v17.8h-7v-44.4h14.4c2.7,0,4.7,2.2,4.7,4.7v14.2c0,1.9-1,3.4-2.4,3.8,2.1.5,3.3,2.6,3.3,4.6v17.1h-7v-17.8h0ZM668.2,135.5h5v-12.6h-5v12.6Z"/>
        <path class="cls-1" d="M707.3,160.3h-18v-44.4h17.5v7h-10.5v11.3h7.4v7h-7.4v12.1h11v7h0Z"/>
        <path class="cls-1" d="M713.1,153.3h7v7h-7v-7Z"/>
      </g>
      <g>
        <path class="cls-1" d="M169.2,12.6h10.4v28h8.8V12.6h10.4v65.8h-10.4v-27.3h-8.8v27.3h-10.4V12.6Z"/>
        <path class="cls-1" d="M218.4,12.6v55.4h8.8V12.6h10.4v59c0,3.7-3.1,6.8-6.9,6.8h-15.7c-3.7,0-6.9-3.1-6.9-6.8V12.6h10.4Z"/>
        <path class="cls-1" d="M257.2,60.9v7h8.8v-18h-12.2c-4,0-6.9-3.4-6.9-6.8v-23.7c0-4,2.8-6.9,6.9-6.9h15.7c3.9,0,6.9,2.9,6.9,6.8v10h-10.4v-6.5h-8.8v16.6h12.2c3.9,0,6.9,3.2,6.9,6.9v25c0,3.7-3.1,6.8-6.9,6.8h-15.7c-3.7,0-6.9-3.1-6.9-6.8v-10.6h10.4Z"/>
        <path class="cls-1" d="M291.3,23h-9.2v-10.4h28.9v10.4h-9.2v55.4h-10.4V23Z"/>
        <path class="cls-1" d="M335.2,67.2h-10.7l-1.4,11.2h-11.1l8.5-65.8h18.5l8.3,65.8h-10.7l-1.4-11.2ZM325.7,56.8h8.2l-4.2-33.8-4,33.8Z"/>
        <path class="cls-1" d="M353.5,12.6h22.6c3.9,0,6.9,3.2,6.9,6.9v52c0,3.7-3.1,6.8-6.9,6.8h-22.6V12.6ZM372.7,23h-8.8v45h8.8V23Z"/>
        <path class="cls-1" d="M422.6,32.2v-9.2h-8.8v45h8.8v-9.3h10.4v12.9c0,3.7-3.1,6.8-6.9,6.8h-15.7c-3.7,0-6.9-3.1-6.9-6.8V19.5c0-3.7,3.2-6.9,6.9-6.9h15.7c3.9,0,6.9,3.2,6.9,6.9v12.7h-10.4Z"/>
        <path class="cls-1" d="M442.2,19.5c0-3.7,3.2-6.9,6.9-6.9h15.7c3.9,0,6.9,3.2,6.9,6.9v52c0,3.7-3.1,6.8-6.9,6.8h-15.7c-3.7,0-6.9-3.1-6.9-6.8V19.5ZM461.4,23h-8.8v45h8.8V23Z"/>
        <path class="cls-1" d="M516.5,78.3v-35.5l-8.5,26.3h-8.4l-8-26.3v35.5c.1,0-10.6,0-10.6,0V12.6h10.4l12.4,38,12.8-38h10.4v65.8h-10.4Z"/>
        <path class="cls-1" d="M536.2,12.6h22.6c3.9,0,6.9,3.2,6.9,6.9v25.7c0,3.7-3.1,6.8-6.9,6.8h-12.2v26.3h-10.4V12.6ZM555.3,23h-8.8v18.7h8.8v-18.7Z"/>
        <path class="cls-1" d="M589,67.2h-10.7l-1.4,11.2h-11.1l8.5-65.8h18.5l8.3,65.8h-10.7l-1.4-11.2h0ZM579.6,56.8h8.2l-4.2-33.8-4,33.8h0Z"/>
        <path class="cls-1" d="M620.1,12.6l9.9,30.9V12.6h10.4v65.8h-10.7l-11.9-37.6v37.6h-10.4V12.6h12.7Z"/>
        <path class="cls-1" d="M649.6,12.6h10.4v65.8h-10.4V12.6Z"/>
        <path class="cls-1" d="M696,78.3h-26.8V12.6h26v10.4h-15.6v16.7h11v10.4h-11v17.9h16.4v10.4h0Z"/>
        <path class="cls-1" d="M714.4,60.9v7h8.8v-18h-12.2c-4,0-6.9-3.4-6.9-6.8v-23.7c0-4,2.8-6.9,6.9-6.9h15.7c3.9,0,6.9,2.9,6.9,6.8v10h-10.4v-6.5h-8.8v16.6h12.2c3.9,0,6.9,3.2,6.9,6.9v25c0,3.7-3.1,6.8-6.9,6.8h-15.7c-3.7,0-6.9-3.1-6.9-6.8v-10.6h10.4Z"/>
      </g>
      <g>
        <path class="cls-1" d="M71.9,49.4c-12.8-2-25.4-5.6-37.8-7.1-10.9,3.8-23.1,6.3-34.1,10.1v7.2c11.8-2.8,23-5.9,34.8-9.2,13.4,2.3,26.5,4.6,39.1,7.1,13.9-3.3,28.6-6.8,42.9-10.3,14.6,3.1,29.3,6,43,8.8v-8.6c-14.6-3.3-29.2-6.6-43-9.5-15.1,3.7-30.1,7.5-44.9,11.6Z"/>
        <path class="cls-1" d="M1,97.8v6.9c39-6.3,77-13.3,116.8-19.8,14.8,2,27.6,3.6,42,5.7v-8.6c-14.6-2.4-29.2-4.6-43.3-6.4-38.6,7.3-77.7,14.1-115.5,22.2Z"/>
        <path class="cls-1" d="M159.7,20.9v-8.8C145.2,8,130.8,3.9,116,0c-13.9,4.6-28.4,8.5-42,13.4v8.5c13.3-3.4,28.4-8.6,42.2-12.8,14.4,4,28.8,8,43.4,11.9h0Z"/>
        <path class="cls-1" d="M1,112.6v7.1c10.6-1.2,23.4-2.8,33.5-4.4,13.4.5,27.3,2,39.5,2.3,0-.2,0-7.6,0-7.6,14.7-2.2,29.2-4,43.6-6,14,1.5,28.1,2.8,42.3,4.2v-8.4c-14.5-1.8-27.9-3.3-42.5-4.9-38.8,5.9-77.9,11.5-116.3,17.7h0Z"/>
        <path class="cls-1" d="M74,66.2v-1.2s-27.1-4.3-38.7-6.5c-11.2,3.1-23.1,5.5-34.3,8.7v7.2c11.4-2.6,22.8-5.2,34.3-7.8,6.3,1.1,14.7,1.5,20.9,3.5-18.4,3.8-36.5,7.8-55.2,11.8v7.4c38.1-7.5,77.7-15.7,116.5-23.3,13.9,2.6,27.8,4.8,42.3,6.9v-8.3c-14.3-2.7-28.6-5.3-43.3-7.7-14.2,3.1-28.4,6.1-42.6,9.2h0Z"/>
        <path class="cls-1" d="M74.1,30.7v3.9l-1.6-.4s0,0,0,0c-2-.5-27.1-6.1-37.6-8.6C23.4,29.7,11.4,33.2,0,37.2v7.2c11.9-3.3,22.6-6.8,35.1-10.4,12.1,2.3,39,7.9,39,7.9v-2.3c14.2-3.7,28.1-7.8,42.5-11.4,14.7,2.9,29.1,7.5,43.3,9.5v-8c-14.5-3.9-29.1-7.6-44.3-10.8-13.8,4.4-27.5,7.9-41.5,11.8h0Z"/>
        <path class="cls-1" d="M117.1,113.5c-13.9,2-28.5,3.2-43,5.3v6.7l-1.3-.2c-24.7-2.1-49.2-2.1-71.8,2.4v7.1c22.8-2.7,47.7-3.8,72.9-1.7v-5.8c14.2-1.6,28.7-2.9,42.9-4.5,13.8.5,28.7,2.1,43,2.5v-8.4c-14.2-1.2-28.5-2.3-42.8-3.4h0Z"/>
        <path class="cls-1" d="M159.8,151.8c-28.6-1-85.8,1.8-85.8,1.8v2.2s-48.3-.2-73,2v7.1c23.7-1.1,73.1-1.4,73.1-1.5v-1.2s55.8-1.9,85.7-2.3v-8.1h0Z"/>
        <path class="cls-1" d="M74.1,136.4v4.3c0,0-49.4-1-73,2.2v6.9c22.1-1.8,51.1-2.7,73-1.7v-3.3s27.9-.9,40.6-2.1c15.3,0,32.7,0,45.2.2v-8.4c-30.1-2.5-85.8,1.9-85.8,1.9h0Z"/>
      </g>
      <path class="cls-1" d="M587.7,141.1h.9c-.4-.1-.7-.1-.9,0Z"/>
    </g>
  </g>
</svg>